<?xml version="1.0" encoding="UTF-8" standalone="no"?><!DOCTYPE svg PUBLIC "-//W3C//DTD SVG 1.1//EN" "http://www.w3.org/Graphics/SVG/1.1/DTD/svg11.dtd"><svg width="100%" height="100%" viewBox="0 0 800 120" version="1.1" xmlns="http://www.w3.org/2000/svg" xmlns:xlink="http://www.w3.org/1999/xlink" xml:space="preserve" xmlns:serif="http://www.serif.com/" style="fill-rule:evenodd;clip-rule:evenodd;stroke-linejoin:round;stroke-miterlimit:2;"><g id="ink_ext_XXXXXX"><g><path id="path58" d="M33.21,59.06l14.38,0c9.11,0 15.68,-1.9 19.71,-5.69c4.03,-3.8 6.04,-10.07 6.04,-18.82c0,-6.11 -0.9,-10.81 -2.71,-14.08c-1.82,-3.27 -4.47,-5.69 -7.98,-7.27c-3.51,-1.58 -9.27,-2.37 -17.27,-2.37c-5.3,0 -8.65,0.51 -10.06,1.51c-1.41,1 -2.11,2.75 -2.11,5.24l0,41.49Zm-32.03,-52.96l52.28,0c11.8,0 20.82,2.68 27.03,8.03c6.21,5.35 9.33,12.35 9.33,21c0,8.64 -2.87,15.24 -8.59,19.77c-7.87,6.26 -17.58,9.39 -29.13,9.39l-18.89,0l0,36.18c0,2.1 0.51,3.61 1.51,4.52c1.33,1.14 3.13,1.72 5.37,1.72l12.04,0l0,5.37l-50.95,0l0,-5.37l10.65,0c2.11,0 3.66,-0.42 4.64,-1.26c0.98,-0.84 1.47,-1.97 1.47,-3.4l0,-84.48c0,-2.15 -0.62,-3.71 -1.87,-4.66c-1.25,-0.96 -3.6,-1.44 -7.06,-1.44l-7.84,0l0,-5.37" style="fill:#007a44;fill-rule:nonzero;stroke:#007a44;stroke-width:1px;"/><path id="path60" d="M117.81,4.88l0,97.32c0,1.33 0.4,2.36 1.22,3.08c1.19,0.95 2.65,1.44 4.37,1.44l7.1,0l0,5.37l-38.05,0l0,-5.37l6.73,0c2.2,0 3.84,-0.53 4.91,-1.58c1.07,-1.05 1.61,-2.52 1.61,-4.44l0,-81.69c0,-2.39 -0.65,-4.13 -1.94,-5.23c-1.77,-1.53 -3.93,-2.3 -6.52,-2.3l-6.02,0l0,-5.37l26.59,-1.21" style="fill:#007a44;fill-rule:nonzero;stroke:#007a44;stroke-width:1px;"/><path id="path62" d="M144.93,73.89l29.1,0c1.72,0 3.06,-0.58 4.01,-1.76c0.96,-1.17 1.44,-3.16 1.44,-5.98c0,-5.25 -1.64,-9.73 -4.91,-13.4c-3.28,-3.67 -7.13,-5.52 -11.57,-5.52c-4.97,0 -9.18,2.23 -12.65,6.67c-3.47,4.44 -5.27,11.1 -5.42,19.99m48.09,5.09l-48.09,0c0.24,10.22 2.16,17.43 5.74,21.64c4.11,4.73 9.34,7.09 15.69,7.09c9.36,0 16.89,-5.33 22.57,-15.98l4.66,2.01c-6.98,13.56 -17.06,20.34 -30.24,20.34c-8.99,0 -16.55,-3.24 -22.68,-9.74c-6.14,-6.5 -9.2,-14.81 -9.2,-24.95c0,-10.89 3.01,-19.69 9.06,-26.4c6.05,-6.72 13.49,-10.07 22.33,-10.07c6.49,0 12.11,1.68 16.84,5.02c4.73,3.35 8.28,8.15 10.68,14.41c1.67,4.39 2.55,9.93 2.65,16.62" style="fill:#007a44;fill-rule:nonzero;stroke:#007a44;stroke-width:1px;"/><path id="path64" d="M247.96,76.4c-12.14,1.67 -20.74,4.4 -25.8,8.17c-3.77,2.87 -5.66,6.93 -5.66,12.18c0,3.68 0.97,6.56 2.94,8.65c1.96,2.07 4.51,3.11 7.67,3.11c5.64,0 10.52,-2.14 14.65,-6.42c4.14,-4.27 6.2,-9.64 6.2,-16.08l0,-9.61Zm23.5,28.31l2.59,4.01c-3.49,3.58 -7.37,5.37 -11.61,5.37c-3.25,0 -5.98,-0.88 -8.21,-2.65c-2.21,-1.77 -4.16,-4.88 -5.83,-9.32c-4.54,4.78 -8.53,7.97 -11.97,9.57c-3.45,1.6 -7.58,2.4 -12.41,2.4c-6.87,0 -12.11,-1.48 -15.69,-4.44c-3.58,-2.96 -5.37,-6.75 -5.37,-11.39c0,-6.97 4.09,-12.76 12.29,-17.38c8.18,-4.61 19.09,-7.68 32.71,-9.21l0,-10.18c0,-3.63 -1.46,-6.74 -4.37,-9.31c-2.91,-2.59 -6.62,-3.87 -11.1,-3.87c-4.17,0 -7.74,0.86 -10.75,2.58c-2.14,1.29 -3.22,2.56 -3.22,3.8c0,0.72 0.57,1.84 1.72,3.37c1.38,1.91 2.08,3.61 2.08,5.1c0,2.14 -0.7,3.9 -2.08,5.26c-1.39,1.36 -3.21,2.05 -5.44,2.05c-2.39,0 -4.39,-0.81 -5.99,-2.43c-1.6,-1.62 -2.41,-3.71 -2.41,-6.24c0,-4.73 2.67,-9.05 7.99,-12.97c5.33,-3.91 12.32,-5.88 20.96,-5.88c7.98,0 14.07,1.72 18.27,5.16c4.2,3.49 6.31,7.71 6.31,12.69l0,36.69c0,3.25 0.53,5.64 1.58,7.16c1.05,1.58 2.41,2.37 4.08,2.37c1.87,0 3.83,-0.77 5.88,-2.3" style="fill:#007a44;fill-rule:nonzero;stroke:#007a44;stroke-width:1px;"/><path id="path66" d="M284.48,86.79c2.96,8.26 6.37,13.98 10.21,17.17c3.85,3.18 8.59,4.76 14.23,4.76c5.21,0 9.2,-1.13 12,-3.4c2.79,-2.27 4.19,-5.15 4.19,-8.63c0,-2.01 -0.52,-3.77 -1.55,-5.27c-1.03,-1.5 -2.45,-2.62 -4.28,-3.36c-1.81,-0.74 -6.53,-1.83 -14.14,-3.27c-7.28,-1.43 -12.34,-2.93 -15.21,-4.51c-2.87,-1.58 -5.11,-3.75 -6.71,-6.52c-1.61,-2.77 -2.4,-5.78 -2.4,-9.03c0,-4.92 1.65,-9.39 4.95,-13.39c4.25,-5.12 10.22,-7.67 17.86,-7.67c5.85,0 11.25,1.84 16.22,5.51l4.74,-5.02l2.94,0l1.87,23.94l-4.81,0c-2.11,-6.78 -4.95,-11.66 -8.54,-14.66c-3.59,-2.99 -8.02,-4.48 -13.29,-4.48c-4.55,0 -8.11,1.11 -10.7,3.33c-2.59,2.22 -3.87,4.93 -3.87,8.13c0,2.82 1.19,5.16 3.58,7.02c2.35,1.91 6.95,3.42 13.79,4.53c7.94,1.34 13.12,2.47 15.51,3.38c3.93,1.44 6.96,3.64 9.11,6.63c2.15,2.98 3.23,6.62 3.23,10.92c0,5.92 -2.33,10.93 -7,15.03c-4.66,4.12 -10.58,6.16 -17.76,6.16c-6.65,0 -12.82,-2.19 -18.52,-6.58l-5.23,6.01l-3.81,0l-1.43,-26.73l4.8,0" style="fill:#007a44;fill-rule:nonzero;stroke:#007a44;stroke-width:1px;"/><path id="path68" d="M385.99,76.4c-12.13,1.67 -20.73,4.4 -25.8,8.17c-3.78,2.87 -5.66,6.93 -5.66,12.18c0,3.68 0.98,6.56 2.95,8.65c1.95,2.07 4.5,3.11 7.65,3.11c5.64,0 10.53,-2.14 14.66,-6.42c4.14,-4.27 6.2,-9.64 6.2,-16.08l0,-9.61Zm23.51,28.31l2.57,4.01c-3.48,3.58 -7.35,5.37 -11.61,5.37c-3.25,0 -5.99,-0.88 -8.2,-2.65c-2.22,-1.77 -4.17,-4.88 -5.84,-9.32c-4.54,4.78 -8.53,7.97 -11.97,9.57c-3.44,1.6 -7.58,2.4 -12.4,2.4c-6.88,0 -12.11,-1.48 -15.7,-4.44c-3.59,-2.96 -5.38,-6.75 -5.38,-11.39c0,-6.97 4.1,-12.76 12.3,-17.38c8.18,-4.61 19.09,-7.68 32.71,-9.21l0,-10.18c0,-3.63 -1.46,-6.74 -4.38,-9.31c-2.91,-2.59 -6.61,-3.87 -11.1,-3.87c-4.15,0 -7.74,0.86 -10.75,2.58c-2.14,1.29 -3.22,2.56 -3.22,3.8c0,0.72 0.57,1.84 1.72,3.37c1.39,1.91 2.08,3.61 2.08,5.1c0,2.14 -0.69,3.9 -2.08,5.26c-1.38,1.36 -3.2,2.05 -5.44,2.05c-2.4,0 -4.38,-0.81 -5.98,-2.43c-1.6,-1.62 -2.41,-3.71 -2.41,-6.24c0,-4.73 2.67,-9.05 7.99,-12.97c5.33,-3.91 12.32,-5.88 20.97,-5.88c7.98,0 14.07,1.72 18.26,5.16c4.21,3.49 6.31,7.71 6.31,12.69l0,36.69c0,3.25 0.53,5.64 1.58,7.16c1.05,1.58 2.41,2.37 4.09,2.37c1.86,0 3.82,-0.77 5.88,-2.3" style="fill:#007a44;fill-rule:nonzero;stroke:#007a44;stroke-width:1px;"/><path id="path70" d="M417.3,44.94l22.29,-1.36c0.91,4.2 1.57,9.13 2,14.76c3.02,-4.87 6.56,-8.53 10.65,-10.96c4.09,-2.44 8.71,-3.65 13.86,-3.65c4.45,0 8.17,0.87 11.18,2.61c3.01,1.75 5.42,4.51 7.23,8.28c1.82,3.77 2.73,8 2.73,12.68l0,32.68c0,2.43 0.54,4.17 1.65,5.2c1.1,1.02 2.94,1.54 5.52,1.54l4.73,0l0,5.37l-35.4,0l0,-5.37l3.37,0c3.16,0 5.35,-0.51 6.59,-1.51c1.25,-1 1.86,-2.5 1.86,-4.51l0,-28.74c0,-6.25 -0.96,-10.89 -2.87,-13.9c-2.67,-4.3 -6.74,-6.44 -12.18,-6.44c-5.39,0 -9.9,2.17 -13.51,6.52c-3.61,4.35 -5.41,10.01 -5.41,16.98l0,24.87c0,2.43 0.57,4.17 1.69,5.2c1.12,1.02 2.97,1.54 5.56,1.54l4.65,0l0,5.37l-35.54,0l0,-5.37l4.65,0c2.34,0 4.12,-0.48 5.34,-1.44c1.23,-0.95 1.82,-2.15 1.82,-3.58l0,-43.36c0,-2.87 -0.78,-5.04 -2.33,-6.52c-1.55,-1.48 -3.78,-2.23 -6.7,-2.23l-3.44,0l0,-4.65" style="fill:#007a44;fill-rule:nonzero;stroke:#007a44;stroke-width:1px;"/><path id="path72" d="M516.01,17.57l4.8,0l0,27.37l24.59,0l0,6.59l-24.59,0l0,43.07c0,3.72 0.88,6.57 2.65,8.56c1.76,1.98 4.01,2.97 6.73,2.97c3.25,0 6.02,-1.51 8.31,-4.51c2.3,-3.01 3.63,-7.97 4.02,-14.9l4.8,0c-0.29,8.93 -2.32,15.55 -6.1,19.88c-3.77,4.33 -8.67,6.49 -14.68,6.49c-5.55,0 -9.88,-1.52 -13.01,-4.55c-3.13,-3.04 -4.7,-7.02 -4.7,-11.94l0,-45.07l-11.68,0l0,-5.02c5.33,-0.91 9.38,-3.13 12.16,-6.66c4.13,-5.31 6.35,-12.74 6.69,-22.29" style="fill:#007a44;fill-rule:nonzero;stroke:#007a44;stroke-width:1px;"/><path id="path74" d="M540.96,44.94l35.91,0l0,4.87c-4.38,0.1 -7.19,0.49 -8.41,1.18c-1.22,0.7 -1.82,1.68 -1.82,2.97c0,1.05 0.24,2.1 0.72,3.15l17.8,39.63l16.2,-38.42c0.24,-0.67 0.36,-1.34 0.36,-2c0,-3.48 -3.44,-5.66 -10.29,-6.51l0,-4.87l27.8,0l0,4.87c-2.82,0.29 -5.06,1.05 -6.73,2.29c-1.68,1.25 -2.97,2.91 -3.87,5.01l-24.61,56.97l-3.88,0l-26.41,-57.54c-0.95,-2.1 -2.11,-3.57 -3.47,-4.41c-1.37,-0.83 -6.39,-0.68 -9.3,-0.73l0,-6.47" style="fill:#007a44;fill-rule:nonzero;stroke:#007a44;stroke-width:1px;"/><path id="path76" d="M634.3,13.52c2.15,0 4.03,0.81 5.67,2.43c1.62,1.63 2.43,3.54 2.43,5.73c0,2.16 -0.79,4.01 -2.36,5.59c-1.58,1.57 -3.47,2.36 -5.66,2.36c-2.2,0 -4.1,-0.8 -5.69,-2.4c-1.61,-1.6 -2.4,-3.48 -2.4,-5.63c0,-2.15 0.8,-4.04 2.44,-5.66c1.62,-1.63 3.49,-2.43 5.58,-2.43m-18.63,31.41l26.73,-0.79l0,57.76c0,1.58 0.38,2.7 1.14,3.38c1.1,0.95 2.48,1.43 4.16,1.43l7.59,0l0,5.37l-38.19,0l0,-5.37l7.1,0c2.1,0 3.64,-0.51 4.63,-1.54c0.98,-1.03 1.46,-2.52 1.46,-4.48l0,-42.28c0,-2.67 -0.77,-4.69 -2.29,-6.05c-1.53,-1.37 -3.8,-2.05 -6.81,-2.05l-5.52,0l0,-5.37" style="fill:#007a44;fill-rule:nonzero;stroke:#007a44;stroke-width:1px;"/><path id="path78" d="M682.79,4.88l0,97.32c0,1.33 0.41,2.36 1.22,3.08c1.19,0.95 2.65,1.44 4.36,1.44l7.1,0l0,5.37l-40.94,0l0,-5.37l9.62,0c2.19,0 3.83,-0.53 4.91,-1.58c1.08,-1.05 1.61,-2.52 1.61,-4.44l0,-81.69c0,-2.39 -0.64,-4.13 -1.94,-5.23c-1.77,-1.53 -3.94,-2.3 -6.52,-2.3l-6.02,0l0,-5.37l26.59,-1.21" style="fill:#007a44;fill-rule:nonzero;stroke:#007a44;stroke-width:1px;"/><path id="path80" d="M752.22,74.92l29.09,0c1.72,0 3.06,-0.58 4.02,-1.76c0.95,-1.17 1.43,-3.16 1.43,-5.98c0,-5.25 -1.64,-9.72 -4.91,-13.4c-3.27,-3.67 -7.13,-5.52 -11.58,-5.52c-4.96,0 -9.18,2.22 -12.65,6.67c-3.46,4.44 -5.26,11.1 -5.41,19.99m46.03,5.09l-48.08,0c0.24,10.22 2.14,17.43 5.72,21.64c4.12,4.73 9.34,7.09 15.7,7.09c9.36,0 16.88,-5.33 22.57,-15.98l4.66,2.01c-6.98,13.56 -17.05,20.35 -30.24,20.35c-8.98,0 -16.54,-3.25 -22.68,-9.74c-6.14,-6.5 -9.21,-14.81 -9.21,-24.94c0,-10.89 3.01,-19.69 9.06,-26.41c6.05,-6.71 13.49,-10.07 22.32,-10.07c6.49,0 12.12,1.68 16.84,5.02c4.73,3.35 8.29,8.14 10.68,14.41c1.66,4.39 2.55,9.93 2.65,16.62" style="fill:#007a44;fill-rule:nonzero;stroke:#007a44;stroke-width:1px;"/><path id="path82" d="M721.17,4.88l0,97.32c0,1.33 0.41,2.36 1.22,3.08c1.19,0.95 2.64,1.44 4.37,1.44l7.09,0l0,5.37l-43.38,0l0,-5.37l12.07,0c2.19,0 3.83,-0.53 4.9,-1.58c1.08,-1.05 1.62,-2.52 1.62,-4.44l0,-81.69c0,-2.39 -0.64,-4.13 -1.94,-5.23c-1.77,-1.53 -3.94,-2.3 -6.52,-2.3l-6.02,0l0,-5.37l26.59,-1.21" style="fill:#007a44;fill-rule:nonzero;stroke:#007a44;stroke-width:1px;"/></g></g></svg>