<?xml version="1.0" encoding="UTF-8" standalone="no"?>
<!DOCTYPE svg PUBLIC "-//W3C//DTD SVG 1.1//EN" "http://www.w3.org/Graphics/SVG/1.1/DTD/svg11.dtd">
<svg width="100%" height="100%" viewBox="0 0 800 120" version="1.1" xmlns="http://www.w3.org/2000/svg" xmlns:xlink="http://www.w3.org/1999/xlink" xml:space="preserve" xmlns:serif="http://www.serif.com/" style="fill-rule:evenodd;clip-rule:evenodd;stroke-linejoin:round;stroke-miterlimit:2;">
    <g id="ink_ext_XXXXXX">
        <g>
            <path id="path58" d="M33.2,59.1L47.6,59.1C56.7,59.1 63.3,57.2 67.3,53.4C71.3,49.6 73.3,43.3 73.3,34.5C73.3,28.4 72.4,23.7 70.6,20.5C68.8,17.2 66.2,14.8 62.6,13.2C59.1,11.6 53.4,10.8 45.4,10.8C40.1,10.8 36.7,11.3 35.3,12.3C33.9,13.3 33.2,15.1 33.2,17.6L33.2,59.1ZM1.2,6.1L53.5,6.1C65.3,6.1 74.3,8.8 80.5,14.1C86.7,19.5 89.8,26.5 89.8,35.1C89.8,43.8 87,50.4 81.2,54.9C73.4,61.2 63.7,64.3 52.1,64.3L33.2,64.3L33.2,100.5C33.2,102.6 33.7,104.1 34.7,105C36,106.1 37.8,106.7 40.1,106.7L52.1,106.7L52.1,112.1L1.2,112.1L1.2,106.7L11.8,106.7C13.9,106.7 15.5,106.3 16.5,105.5C17.4,104.6 17.9,103.5 17.9,102L17.9,17.6C17.9,15.4 17.3,13.9 16.1,12.9C14.8,12 12.5,11.5 9,11.5L1.2,11.5L1.2,6.1" style="fill:#fff;fill-rule:nonzero;stroke:#fff;stroke-width:1px;"/>
            <path id="path60" d="M117.8,4.9L117.8,102.2C117.8,103.5 118.2,104.6 119,105.3C120.2,106.2 121.7,106.7 123.4,106.7L130.5,106.7L130.5,112.1L92.4,112.1L92.4,106.7L99.2,106.7C101.4,106.7 103,106.2 104.1,105.1C105.2,104.1 105.7,102.6 105.7,100.7L105.7,19C105.7,16.6 105.1,14.9 103.8,13.8C102,12.2 99.8,11.5 97.2,11.5L91.2,11.5L91.2,6.1L117.8,4.9" style="fill:#fff;fill-rule:nonzero;stroke:#fff;stroke-width:1px;"/>
            <path id="path62" d="M144.9,73.9L174,73.9C175.7,73.9 177.1,73.3 178,72.1C179,71 179.5,69 179.5,66.2C179.5,60.9 177.8,56.4 174.6,52.8C171.3,49.1 167.4,47.2 163,47.2C158,47.2 153.8,49.5 150.3,53.9C146.9,58.3 145.1,65 144.9,73.9M193,79L144.9,79C145.2,89.2 147.1,96.4 150.7,100.6C154.8,105.4 160,107.7 166.4,107.7C175.7,107.7 183.2,102.4 188.9,91.7L193.6,93.7C186.6,107.3 176.5,114.1 163.3,114.1C154.4,114.1 146.8,110.8 140.7,104.3C134.5,97.9 131.5,89.5 131.5,79.4C131.5,68.5 134.5,59.7 140.5,53C146.6,46.3 154,42.9 162.8,42.9C169.3,42.9 175,44.6 179.7,47.9C184.4,51.3 188,56.1 190.4,62.4C192,66.7 192.9,72.3 193,79" style="fill:#fff;fill-rule:nonzero;stroke:#fff;stroke-width:1px;"/>
            <path id="path64" d="M248,76.4C235.8,78.1 227.2,80.8 222.2,84.6C218.4,87.4 216.5,91.5 216.5,96.7C216.5,100.4 217.5,103.3 219.4,105.4C221.4,107.5 224,108.5 227.1,108.5C232.7,108.5 237.6,106.4 241.8,102.1C245.9,97.8 248,92.4 248,86L248,76.4ZM271.5,104.7L274,108.7C270.6,112.3 266.7,114.1 262.4,114.1C259.2,114.1 256.5,113.2 254.2,111.4C252,109.7 250.1,106.6 248.4,102.1C243.9,106.9 239.9,110.1 236.4,111.7C233,113.3 228.8,114.1 224,114.1C217.2,114.1 211.9,112.6 208.3,109.6C204.7,106.7 203,102.9 203,98.3C203,91.3 207.1,85.5 215.3,80.9C223.4,76.3 234.3,73.2 248,71.7L248,61.5C248,57.9 246.5,54.8 243.6,52.2C240.7,49.6 237,48.3 232.5,48.3C228.3,48.3 224.7,49.2 221.7,50.9C219.6,52.2 218.5,53.4 218.5,54.7C218.5,55.4 219.1,56.5 220.2,58.1C221.6,60 222.3,61.7 222.3,63.1C222.3,65.3 221.6,67 220.2,68.4C218.8,69.8 217,70.5 214.8,70.5C212.4,70.5 210.4,69.6 208.8,68C207.2,66.4 206.4,64.3 206.4,61.8C206.4,57 209.1,52.7 214.4,48.8C219.7,44.9 226.7,42.9 235.3,42.9C243.3,42.9 249.4,44.7 253.6,48.1C257.8,51.6 259.9,55.8 259.9,60.8L259.9,97.5C259.9,100.7 260.5,103.1 261.5,104.6C262.6,106.2 263.9,107 265.6,107C267.5,107 269.4,106.2 271.5,104.7" style="fill:#fff;fill-rule:nonzero;stroke:#fff;stroke-width:1px;"/>
            <path id="path66" d="M284.5,86.8C287.4,95.1 290.8,100.8 294.7,104C298.5,107.1 303.3,108.7 308.9,108.7C314.1,108.7 318.1,107.6 320.9,105.3C323.7,103 325.1,100.2 325.1,96.7C325.1,94.7 324.6,92.9 323.6,91.4C322.5,89.9 321.1,88.8 319.3,88C317.5,87.3 312.8,86.2 305.1,84.8C297.9,83.4 292.8,81.8 289.9,80.3C287.1,78.7 284.8,76.5 283.2,73.7C281.6,71 280.8,68 280.8,64.7C280.8,59.8 282.5,55.3 285.8,51.3C290,46.2 296,43.7 303.6,43.7C309.5,43.7 314.9,45.5 319.9,49.2L324.6,44.1L327.5,44.1L329.4,68.1L324.6,68.1C322.5,61.3 319.7,56.4 316.1,53.4C312.5,50.4 308,49 302.8,49C298.2,49 294.7,50.1 292.1,52.3C289.5,54.5 288.2,57.2 288.2,60.4C288.2,63.2 289.4,65.6 291.8,67.4C294.1,69.3 298.7,70.9 305.6,72C313.5,73.3 318.7,74.4 321.1,75.3C325,76.8 328,79 330.2,82C332.3,85 333.4,88.6 333.4,92.9C333.4,98.8 331.1,103.8 326.4,107.9C321.8,112 315.8,114.1 308.7,114.1C302,114.1 295.9,111.9 290.2,107.5L284.9,113.5L281.1,113.5L279.7,86.8L284.5,86.8" style="fill:#fff;fill-rule:nonzero;stroke:#fff;stroke-width:1px;"/>
            <path id="path68" d="M386,76.4C373.9,78.1 365.3,80.8 360.2,84.6C356.4,87.4 354.5,91.5 354.5,96.7C354.5,100.4 355.5,103.3 357.5,105.4C359.4,107.5 362,108.5 365.1,108.5C370.8,108.5 375.7,106.4 379.8,102.1C383.9,97.8 386,92.4 386,86L386,76.4ZM409.5,104.7L412.1,108.7C408.6,112.3 404.7,114.1 400.5,114.1C397.2,114.1 394.5,113.2 392.3,111.4C390,109.7 388.1,106.6 386.4,102.1C381.9,106.9 377.9,110.1 374.5,111.7C371,113.3 366.9,114.1 362.1,114.1C355.2,114.1 349.9,112.6 346.4,109.6C342.8,106.7 341,102.9 341,98.3C341,91.3 345.1,85.5 353.3,80.9C361.5,76.3 372.4,73.2 386,71.7L386,61.5C386,57.9 384.5,54.8 381.6,52.2C378.7,49.6 375,48.3 370.5,48.3C366.4,48.3 362.8,49.2 359.8,50.9C357.6,52.2 356.5,53.4 356.5,54.7C356.5,55.4 357.1,56.5 358.3,58.1C359.6,60 360.3,61.7 360.3,63.1C360.3,65.3 359.6,67 358.3,68.4C356.9,69.8 355.1,70.5 352.8,70.5C350.4,70.5 348.4,69.6 346.8,68C345.2,66.4 344.4,64.3 344.4,61.8C344.4,57 347.1,52.7 352.4,48.8C357.7,44.9 364.7,42.9 373.4,42.9C381.4,42.9 387.5,44.7 391.6,48.1C395.9,51.6 398,55.8 398,60.8L398,97.5C398,100.7 398.5,103.1 399.5,104.6C400.6,106.2 401.9,107 403.6,107C405.5,107 407.4,106.2 409.5,104.7" style="fill:#fff;fill-rule:nonzero;stroke:#fff;stroke-width:1px;"/>
            <path id="path70" d="M417.3,44.9L439.6,43.6C440.5,47.8 441.2,52.7 441.6,58.3C444.6,53.5 448.1,49.8 452.2,47.4C456.3,44.9 460.9,43.7 466.1,43.7C470.5,43.7 474.3,44.6 477.3,46.3C480.3,48.1 482.7,50.8 484.5,54.6C486.3,58.4 487.2,62.6 487.2,67.3L487.2,100C487.2,102.4 487.8,104.1 488.9,105.2C490,106.2 491.8,106.7 494.4,106.7L499.1,106.7L499.1,112.1L463.7,112.1L463.7,106.7L467.1,106.7C470.3,106.7 472.5,106.2 473.7,105.2C474.9,104.2 475.6,102.7 475.6,100.7L475.6,72C475.6,65.7 474.6,61.1 472.7,58.1C470,53.8 465.9,51.6 460.5,51.6C455.1,51.6 450.6,53.8 447,58.1C443.4,62.5 441.6,68.1 441.6,75.1L441.6,100C441.6,102.4 442.2,104.1 443.3,105.2C444.4,106.2 446.2,106.7 448.8,106.7L453.5,106.7L453.5,112.1L417.9,112.1L417.9,106.7L422.6,106.7C424.9,106.7 426.7,106.2 427.9,105.3C429.2,104.3 429.8,103.1 429.8,101.7L429.8,58.3C429.8,55.5 429,53.3 427.4,51.8C425.9,50.3 423.7,49.6 420.7,49.6L417.3,49.6L417.3,44.9" style="fill:#fff;fill-rule:nonzero;stroke:#fff;stroke-width:1px;"/>
            <path id="path72" d="M516,17.6L520.8,17.6L520.8,44.9L545.4,44.9L545.4,51.5L520.8,51.5L520.8,94.6C520.8,98.3 521.7,101.2 523.5,103.2C525.2,105.1 527.5,106.1 530.2,106.1C533.4,106.1 536.2,104.6 538.5,101.6C540.8,98.6 542.1,93.6 542.5,86.7L547.3,86.7C547,95.7 545,102.3 541.2,106.6C537.5,110.9 532.6,113.1 526.5,113.1C521,113.1 516.7,111.6 513.5,108.5C510.4,105.5 508.8,101.5 508.8,96.6L508.8,51.5L497.2,51.5L497.2,46.5C502.5,45.6 506.5,43.4 509.3,39.9C513.4,34.5 515.7,27.1 516,17.6" style="fill:#fff;fill-rule:nonzero;stroke:#fff;stroke-width:1px;"/>
            <path id="path74" d="M541,44.9L576.9,44.9L576.9,49.8C572.5,49.9 569.7,50.3 568.4,51C567.2,51.7 566.6,52.7 566.6,54C566.6,55 566.9,56.1 567.3,57.1L585.1,96.7L601.3,58.3C601.6,57.7 601.7,57 601.7,56.3C601.7,52.8 598.3,50.7 591.4,49.8L591.4,44.9L619.2,44.9L619.2,49.8C616.4,50.1 614.2,50.9 612.5,52.1C610.8,53.4 609.5,55 608.6,57.1L584,114.1L580.1,114.1L553.7,56.5C552.8,54.4 551.6,53 550.3,52.1C548.9,51.3 543.9,51.5 541,51.4L541,44.9" style="fill:#fff;fill-rule:nonzero;stroke:#fff;stroke-width:1px;"/>
            <path id="path76" d="M634.3,13.5C636.5,13.5 638.3,14.3 640,16C641.6,17.6 642.4,19.5 642.4,21.7C642.4,23.8 641.6,25.7 640,27.3C638.5,28.9 636.6,29.6 634.4,29.6C632.2,29.6 630.3,28.8 628.7,27.2C627.1,25.6 626.3,23.8 626.3,21.6C626.3,19.5 627.1,17.6 628.7,16C630.3,14.3 632.2,13.5 634.3,13.5M615.7,44.9L642.4,44.1L642.4,101.9C642.4,103.5 642.8,104.6 643.5,105.3C644.6,106.2 646,106.7 647.7,106.7L655.3,106.7L655.3,112.1L617.1,112.1L617.1,106.7L624.2,106.7C626.3,106.7 627.8,106.2 628.8,105.2C629.8,104.1 630.3,102.7 630.3,100.7L630.3,58.4C630.3,55.7 629.5,53.7 628,52.4C626.5,51 624.2,50.3 621.2,50.3L615.7,50.3L615.7,44.9" style="fill:#fff;fill-rule:nonzero;stroke:#fff;stroke-width:1px;"/>
            <path id="path78" d="M682.8,4.9L682.8,102.2C682.8,103.5 683.2,104.6 684,105.3C685.2,106.2 686.7,106.7 688.4,106.7L695.5,106.7L695.5,112.1L654.5,112.1L654.5,106.7L664.2,106.7C666.4,106.7 668,106.2 669.1,105.1C670.1,104.1 670.7,102.6 670.7,100.7L670.7,19C670.7,16.6 670,14.9 668.7,13.8C667,12.2 664.8,11.5 662.2,11.5L656.2,11.5L656.2,6.1L682.8,4.9" style="fill:#fff;fill-rule:nonzero;stroke:#fff;stroke-width:1px;"/>
            <path id="path80" d="M752.2,74.9L781.3,74.9C783,74.9 784.4,74.3 785.3,73.2C786.3,72 786.8,70 786.8,67.2C786.8,61.9 785.1,57.5 781.9,53.8C778.6,50.1 774.7,48.3 770.3,48.3C765.3,48.3 761.1,50.5 757.6,54.9C754.2,59.4 752.4,66 752.2,74.9M798.3,80L750.2,80C750.4,90.2 752.3,97.4 755.9,101.6C760,106.4 765.2,108.7 771.6,108.7C781,108.7 788.5,103.4 794.2,92.8L798.8,94.8C791.8,108.3 781.8,115.1 768.6,115.1C759.6,115.1 752,111.9 745.9,105.4C739.8,98.9 736.7,90.6 736.7,80.4C736.7,69.5 739.7,60.7 745.8,54C751.8,47.3 759.2,44 768.1,44C774.6,44 780.2,45.6 784.9,49C789.7,52.3 793.2,57.1 795.6,63.4C797.3,67.8 798.2,73.3 798.3,80" style="fill:#fff;fill-rule:nonzero;stroke:#fff;stroke-width:1px;"/>
            <path id="path82" d="M721.2,4.9L721.2,102.2C721.2,103.5 721.6,104.6 722.4,105.3C723.6,106.2 725,106.7 726.8,106.7L733.9,106.7L733.9,112.1L690.5,112.1L690.5,106.7L702.5,106.7C704.7,106.7 706.4,106.2 707.4,105.1C708.5,104.1 709.1,102.6 709.1,100.7L709.1,19C709.1,16.6 708.4,14.9 707.1,13.8C705.4,12.2 703.2,11.5 700.6,11.5L694.6,11.5L694.6,6.1L721.2,4.9" style="fill:#fff;fill-rule:nonzero;stroke:#fff;stroke-width:1px;"/>
        </g>
    </g>
</svg>
