<svg xmlns="http://www.w3.org/2000/svg" xml:space="preserve" fill-rule="evenodd" stroke-linejoin="round" stroke-miterlimit="2" clip-rule="evenodd" version="1.1" viewBox="0 0 3612 500"><g fill="#007b45" fill-rule="nonzero"><path d="M145.022 245.274h65.126c41.23 0 71.004-8.609 89.236-25.782 18.238-17.228 27.337-45.599 27.337-85.199 0-27.673-4.097-48.947-12.272-63.752-8.223-14.822-20.254-25.788-36.118-32.932-15.898-7.151-41.949-10.732-78.203-10.732-23.988 0-39.171 2.29-45.533 6.836-6.383 4.536-9.573 12.439-9.573 23.702v187.858ZM0 5.48h236.738c53.444 0 94.273 12.12 122.409 36.354 28.14 24.23 42.239 55.903 42.239 95.074 0 39.123-12.973 69.013-38.908 89.536-35.634 28.331-79.583 42.524-131.912 42.524h-85.545v163.839c0 9.533 2.301 16.348 6.836 20.465 6.028 5.176 14.149 7.797 24.334 7.797h54.507v24.316H-.001v-24.316h48.22c9.553 0 16.58-1.894 21.024-5.707 4.424-3.787 6.671-8.919 6.671-15.412V57.417c0-9.737-2.823-16.786-8.45-21.083-5.649-4.351-16.289-6.526-31.958-6.526H-.002V5.481M528.116-.017v440.643c0 6.015 1.817 10.681 5.512 13.943 5.408 4.314 11.988 6.5 19.77 6.5h32.163v24.306H413.257v-24.306h30.491c9.959 0 17.37-2.398 22.227-7.172 4.861-4.742 7.302-11.426 7.302-20.102V63.891c0-10.818-2.925-18.703-8.767-23.683-7.997-6.923-17.812-10.399-29.529-10.399h-27.268V5.482L528.116-.015m122.767 312.462h131.756c7.772 0 13.856-2.648 18.167-7.971 4.339-5.306 6.494-14.321 6.494-27.083 0-23.784-7.422-44.032-22.217-60.664-14.839-16.641-32.306-24.996-52.411-24.996-22.517 0-41.578 10.084-57.267 30.182-15.7 20.104-23.861 50.28-24.522 90.532m217.733 23.041H650.883c1.094 46.284 9.761 78.945 25.972 97.977 18.622 21.437 42.272 32.118 71.056 32.118 42.394 0 76.461-24.132 102.206-72.367l21.094 9.119c-31.589 61.404-77.228 92.116-136.917 92.116-40.683 0-74.922-14.692-102.706-44.091-27.806-29.427-41.683-67.053-41.683-112.951 0-49.31 13.65-89.161 41.011-119.553 27.389-30.408 61.072-45.588 101.1-45.588 29.406 0 54.822 7.591 76.25 22.714 21.422 15.154 37.511 36.882 48.356 65.234 7.567 19.874 11.556 44.972 11.994 75.272m248.812-11.696c-54.944 7.567-93.889 19.904-116.817 36.998-17.083 12.984-25.622 31.359-25.622 55.143 0 16.667 4.411 29.711 13.3 39.152 8.872 9.379 20.428 14.073 34.706 14.073 25.528 0 47.65-9.681 66.35-29.047 18.722-19.327 28.083-43.648 28.083-72.826v-43.494Zm106.4 128.177 11.711 18.166c-15.817 16.226-33.35 24.314-52.578 24.314-14.717 0-27.089-3.969-37.161-11.994-10.033-8.008-18.85-22.077-26.417-42.181-20.55 21.645-38.633 36.065-54.183 43.32-15.6 7.259-34.306 10.855-56.167 10.855-31.117 0-54.822-6.699-71.056-20.111-16.217-13.411-24.322-30.566-24.322-51.584 0-31.576 18.533-57.791 55.672-78.679 37.056-20.877 86.428-34.783 148.1-41.706v-46.072c0-16.428-6.622-30.494-19.806-42.17-13.189-11.714-29.961-17.53-50.272-17.53-18.861 0-35.056 3.895-48.689 11.664-9.706 5.866-14.594 11.595-14.594 17.209 0 3.256 2.589 8.344 7.794 15.246 6.244 8.665 9.406 16.352 9.406 23.075 0 9.689-3.161 17.669-9.406 23.817-6.317 6.159-14.522 9.267-24.644 9.267-10.85 0-19.889-3.674-27.111-11.02-7.25-7.357-10.9-16.786-10.9-28.271 0-21.408 12.106-40.962 36.194-58.713 24.15-17.726 55.789-26.606 94.9-26.606 36.128 0 63.722 7.784 82.739 23.351 19.039 15.82 28.55 34.928 28.55 57.448v166.124c0 14.724 2.394 25.521 7.139 32.428 4.756 7.133 10.928 10.747 18.494 10.747 8.456 0 17.328-3.481 26.606-10.395m58.94-81.123c13.4 37.413 28.833 63.318 46.228 77.728 17.417 14.377 38.872 21.562 64.433 21.562 23.589 0 41.672-5.113 54.356-15.414 12.656-10.286 18.967-23.318 18.967-39.091 0-9.086-2.361-17.057-6.994-23.876-4.672-6.814-11.089-11.867-19.367-15.213-8.2-3.353-29.572-8.29-64.028-14.801-32.95-6.462-55.889-13.281-68.889-20.417-13.017-7.155-23.139-16.986-30.378-29.54-7.267-12.543-10.883-26.178-10.883-40.896 0-22.266 7.489-42.491 22.422-60.638 19.267-23.179 46.267-34.729 80.894-34.729 26.461 0 50.95 8.312 73.467 24.972l21.456-22.714h13.328l8.472 108.381h-21.767c-9.544-30.718-22.422-52.821-38.683-66.363-16.272-13.52-36.333-20.267-60.156-20.267-20.6 0-36.706 5.017-48.439 15.072-11.717 10.056-17.544 22.339-17.544 36.836 0 12.761 5.389 23.351 16.2 31.795 10.656 8.652 31.456 15.493 62.433 20.501 35.961 6.066 59.411 11.17 70.228 15.278 17.778 6.511 31.522 16.498 41.267 30.028 9.728 13.505 14.611 29.987 14.611 49.449 0 26.827-10.567 49.494-31.689 68.064-21.117 18.648-47.911 27.897-80.4 27.897-30.122 0-58.05-9.939-83.856-29.811l-23.689 27.231h-17.25l-6.494-121.024h21.744m459.661-47.053c-54.933 7.567-93.867 19.904-116.806 36.998-17.111 12.984-25.628 31.359-25.628 55.143 0 16.667 4.411 29.711 13.333 39.152 8.833 9.379 20.389 14.073 34.656 14.073 25.544 0 47.667-9.681 66.372-29.047 18.733-19.327 28.072-43.648 28.072-72.826v-43.494Zm106.444 128.177 11.667 18.166c-15.767 16.226-33.278 24.314-52.594 24.314-14.7 0-27.106-3.969-37.117-11.994-10.072-8.008-18.872-22.077-26.444-42.181-20.55 21.645-38.617 36.065-54.189 43.32-15.583 7.259-34.311 10.855-56.133 10.855-31.161 0-54.85-6.699-71.072-20.111-16.233-13.411-24.367-30.566-24.367-51.584 0-31.576 18.556-57.791 55.694-78.679 37.056-20.877 86.45-34.783 148.111-41.706v-46.072c0-16.428-6.606-30.494-19.833-42.17-13.183-11.714-29.917-17.53-50.272-17.53-18.806 0-35.028 3.895-48.667 11.664-9.7 5.866-14.594 11.595-14.594 17.209 0 3.256 2.583 8.344 7.772 15.246 6.306 8.665 9.439 16.352 9.439 23.075 0 9.689-3.133 17.669-9.439 23.817-6.228 6.159-14.489 9.267-24.644 9.267-10.85 0-19.844-3.674-27.083-11.02-7.267-7.357-10.889-16.786-10.889-28.271 0-21.408 12.061-40.962 36.161-58.713 24.144-17.726 55.806-26.606 94.956-26.606 36.133 0 63.706 7.784 82.706 23.351 19.05 15.82 28.578 34.928 28.578 57.448v166.124c0 14.724 2.378 25.521 7.128 32.428 4.778 7.133 10.928 10.747 18.511 10.747 8.444 0 17.322-3.481 26.617-10.395m35.286-270.62 100.922-6.163c4.1 19.026 7.106 41.319 9.05 66.833 13.661-22.059 29.728-38.611 48.211-49.639 18.511-11.031 39.417-16.543 62.778-16.543 20.139 0 36.994 3.939 50.633 11.845 13.628 7.903 24.522 20.397 32.722 37.487 8.261 17.064 12.372 36.22 12.372 57.396v147.975c0 11.02 2.45 18.88 7.467 23.546 4.989 4.635 13.3 6.994 24.978 6.994h21.406v24.327h-160.294v-24.327h15.244c14.322 0 24.25-2.329 29.861-6.858 5.639-4.507 8.439-11.324 8.439-20.427V303.661c0-28.303-4.328-49.309-12.967-62.944-12.117-19.466-30.522-29.178-55.172-29.178-24.428 0-44.806 9.837-61.167 29.521-16.328 19.672-24.511 45.306-24.511 76.877v112.602c0 11.02 2.572 18.88 7.639 23.546 5.078 4.635 13.467 6.994 25.15 6.994h21.072v24.327h-160.906v-24.327h21.061c10.622 0 18.678-2.196 24.189-6.547 5.544-4.288 8.256-9.718 8.256-16.192V242.018c0-12.982-3.506-22.819-10.522-29.518-7.033-6.712-17.122-10.087-30.35-10.087h-15.561v-21.066m446.961-123.931h21.722v123.932h111.339v29.861h-111.339V406.24c0 16.841 3.983 29.757 12.011 38.741 7.989 8.973 18.156 13.466 30.494 13.466 14.722 0 27.244-6.829 37.628-20.436 10.394-13.629 16.417-36.107 18.183-67.47h21.739c-1.306 40.441-10.506 70.428-27.617 90.011-17.067 19.614-39.25 29.401-66.483 29.401-25.106 0-44.728-6.89-58.894-20.601-14.172-13.77-21.3-31.786-21.3-54.073V211.21h-52.867v-22.717c24.133-4.117 42.467-14.164 55.078-30.169 18.672-24.03 28.767-57.667 30.306-100.907"/><path d="M2444.089 181.348h162.578v22.059c-19.85.452-32.567 2.214-38.1 5.349-5.5 3.168-8.256 7.624-8.256 13.466 0 4.746 1.106 9.509 3.256 14.262l80.611 179.449 73.372-173.958c1.072-3.021 1.617-6.07 1.617-9.076 0-15.783-15.561-25.607-46.594-29.492v-22.059h125.878v22.059c-12.75 1.296-22.894 4.768-30.444 10.378-7.606 5.656-13.467 13.184-17.544 22.699l-111.439 257.965h-17.544l-119.589-260.545c-4.306-9.518-9.578-16.163-15.711-19.968-6.194-3.776-28.917-3.081-42.089-3.287v-29.302"/><path d="M2866.744 39.107c9.744 0 18.261 3.65 25.661 11.018 7.328 7.357 11.017 16.029 11.017 25.957 0 9.763-3.594 18.179-10.7 25.326-7.172 7.116-15.689 10.681-25.65 10.681-9.95 0-18.578-3.596-25.783-10.857-7.278-7.252-10.872-15.755-10.872-25.471 0-9.755 3.644-18.279 11.033-25.636 7.339-7.368 15.8-11.018 25.294-11.018m-84.339 142.242 121.017-3.569v261.519c0 7.144 1.722 12.25 5.183 15.282 4.983 4.303 11.244 6.489 18.839 6.489h34.356v24.316h-172.939V461.07h32.128c9.528 0 16.483-2.326 20.95-6.983 4.439-4.677 6.644-11.408 6.644-20.291v-191.45c0-12.109-3.494-21.246-10.378-27.402-6.944-6.185-17.217-9.277-30.822-9.277h-24.978V181.35"/><path d="M3086.3-.017v440.643c0 6.015 1.844 10.681 5.522 13.943 5.394 4.314 11.989 6.5 19.756 6.5h32.156v24.306h-185.378v-24.306h43.578c9.939 0 17.339-2.398 22.233-7.172 4.883-4.742 7.294-11.426 7.294-20.102V63.891c0-10.818-2.9-18.703-8.772-23.683-8.017-6.923-17.833-10.399-29.522-10.399h-27.244V5.482l120.378-5.497m314.393 317.11h131.717c7.828 0 13.861-2.648 18.2-7.958 4.294-5.317 6.467-14.323 6.467-27.094 0-23.774-7.411-44.021-22.233-60.666-14.789-16.645-32.272-24.989-52.411-24.989-22.472 0-41.567 10.08-57.256 30.187-15.672 20.095-23.828 50.264-24.483 90.521m208.422 23.043H3391.4c1.072 46.272 9.711 78.932 25.922 97.975 18.661 21.421 42.283 32.125 71.094 32.125 42.372 0 76.439-24.132 102.2-72.381l21.072 9.111c-31.589 61.415-77.194 92.144-136.917 92.144-40.678 0-74.889-14.703-102.689-44.108-27.789-29.422-41.689-67.046-41.689-112.934 0-49.321 13.617-89.171 41.017-119.574 27.389-30.41 61.089-45.577 101.072-45.577 29.406 0 54.861 7.589 76.283 22.714 21.394 15.159 37.511 36.867 48.35 65.228 7.528 19.889 11.567 44.976 12 75.278"/><path d="M3260.094-.017v440.643c0 6.015 1.833 10.681 5.522 13.943 5.394 4.314 11.967 6.5 19.772 6.5h32.117v24.306h-196.433v-24.306h54.656c9.922 0 17.328-2.398 22.2-7.172 4.894-4.742 7.328-11.426 7.328-20.102V63.891c0-10.818-2.922-18.703-8.789-23.683-8-6.923-17.839-10.399-29.517-10.399h-27.256V5.482l120.4-5.497"/></g></svg>