<?xml version="1.0" encoding="UTF-8"?>
<!--Generator: Apple Native CoreSVG 341-->
<!DOCTYPE svg
PUBLIC "-//W3C//DTD SVG 1.1//EN"
       "http://www.w3.org/Graphics/SVG/1.1/DTD/svg11.dtd">
<svg version="1.1" xmlns="http://www.w3.org/2000/svg" xmlns:xlink="http://www.w3.org/1999/xlink" viewBox="0 0 1326.65 1327.77">
 <g>
  <rect height="1327.77" opacity="0" width="1326.65" x="0" y="0"/>
  <path d="M663.01 1326.79C700.02 1326.79 729.793 1300.35 735.076 1261.62C794.037 840.939 852.224 781.775 1259.27 736.453C1297.62 731.773 1326.65 700.65 1326.65 663.641C1326.65 626.143 1298 595.767 1259.64 590.456C854.089 538.677 800.751 485.597 735.076 64.9172C728.674 26.8161 699.647 0 663.01 0C626.489 0 596.601 26.8161 590.829 65.2902C532.357 485.97 474.427 545.019 67.5012 590.456C28.6539 595.394 0 625.77 0 663.641C0 700.65 27.9079 730.912 67.1281 736.453C472.705 792.144 524.72 841.57 590.829 1261.99C598.093 1300.72 627.235 1326.79 663.01 1326.79Z" fill="white"/>
 </g>
</svg>
